<svg width="94" height="16" viewBox="0 0 94 16" fill="none" xmlns="http://www.w3.org/2000/svg">
<g filter="url(#filter0_i_66_22)">
<path d="M0.264205 15V0.454545H6.08807C7.15814 0.454545 8.05066 0.613163 8.76562 0.930398C9.48059 1.24763 10.018 1.68797 10.3778 2.25142C10.7377 2.81013 10.9176 3.45407 10.9176 4.18324C10.9176 4.75142 10.804 5.25095 10.5767 5.68182C10.3494 6.10795 10.0369 6.45833 9.6392 6.73295C9.24621 7.00284 8.7964 7.1946 8.28977 7.30824V7.45028C8.84375 7.47396 9.36222 7.63021 9.84517 7.91903C10.3329 8.20786 10.7282 8.61269 11.0312 9.13352C11.3343 9.64962 11.4858 10.2652 11.4858 10.9801C11.4858 11.7519 11.294 12.4408 10.9105 13.0469C10.5317 13.6482 9.97064 14.1241 9.22727 14.4744C8.4839 14.8248 7.56771 15 6.47869 15H0.264205ZM3.33949 12.4858H5.84659C6.7036 12.4858 7.3286 12.3224 7.72159 11.9957C8.11458 11.6643 8.31108 11.224 8.31108 10.6747C8.31108 10.2723 8.21402 9.91714 8.01989 9.60938C7.82576 9.30161 7.54877 9.06013 7.18892 8.88494C6.83381 8.70975 6.41004 8.62216 5.91761 8.62216H3.33949V12.4858ZM3.33949 6.54119H5.61932C6.04072 6.54119 6.41477 6.4678 6.74148 6.32102C7.07292 6.16951 7.33333 5.95644 7.52273 5.68182C7.71686 5.4072 7.81392 5.07812 7.81392 4.6946C7.81392 4.16903 7.62689 3.74527 7.25284 3.4233C6.88352 3.10133 6.35795 2.94034 5.67614 2.94034H3.33949V6.54119ZM24.8712 0.454545H27.9465V9.90057C27.9465 10.9612 27.6932 11.8892 27.1866 12.6847C26.6847 13.4801 25.9816 14.1004 25.0772 14.5455C24.1728 14.9858 23.1193 15.206 21.9167 15.206C20.7093 15.206 19.6534 14.9858 18.7491 14.5455C17.8447 14.1004 17.1416 13.4801 16.6397 12.6847C16.1378 11.8892 15.8869 10.9612 15.8869 9.90057V0.454545H18.9621V9.63778C18.9621 10.1918 19.0829 10.6842 19.3244 11.1151C19.5706 11.5459 19.9162 11.8845 20.3613 12.1307C20.8064 12.3769 21.3248 12.5 21.9167 12.5C22.5133 12.5 23.0317 12.3769 23.4721 12.1307C23.9172 11.8845 24.2604 11.5459 24.5019 11.1151C24.7481 10.6842 24.8712 10.1918 24.8712 9.63778V0.454545ZM32.3227 2.99006V0.454545H44.2687V2.99006H39.8156V15H36.7759V2.99006H32.3227ZM48.0821 2.99006V0.454545H60.0281V2.99006H55.575V15H52.5352V2.99006H48.0821ZM77.0979 7.72727C77.0979 9.31345 76.7972 10.6629 76.1959 11.7756C75.5993 12.8883 74.7849 13.7382 73.7527 14.3253C72.7252 14.9077 71.5699 15.1989 70.2868 15.1989C68.9942 15.1989 67.8341 14.9053 66.8067 14.3182C65.7792 13.7311 64.9672 12.8812 64.3706 11.7685C63.774 10.6558 63.4757 9.30871 63.4757 7.72727C63.4757 6.1411 63.774 4.79167 64.3706 3.67898C64.9672 2.56629 65.7792 1.71875 66.8067 1.13636C67.8341 0.549242 68.9942 0.255681 70.2868 0.255681C71.5699 0.255681 72.7252 0.549242 73.7527 1.13636C74.7849 1.71875 75.5993 2.56629 76.1959 3.67898C76.7972 4.79167 77.0979 6.1411 77.0979 7.72727ZM73.98 7.72727C73.98 6.69981 73.8261 5.83333 73.5183 5.12784C73.2153 4.42235 72.7868 3.88731 72.2328 3.52273C71.6788 3.15814 71.0302 2.97585 70.2868 2.97585C69.5434 2.97585 68.8947 3.15814 68.3408 3.52273C67.7868 3.88731 67.3559 4.42235 67.0482 5.12784C66.7451 5.83333 66.5936 6.69981 66.5936 7.72727C66.5936 8.75473 66.7451 9.62121 67.0482 10.3267C67.3559 11.0322 67.7868 11.5672 68.3408 11.9318C68.8947 12.2964 69.5434 12.4787 70.2868 12.4787C71.0302 12.4787 71.6788 12.2964 72.2328 11.9318C72.7868 11.5672 73.2153 11.0322 73.5183 10.3267C73.8261 9.62121 73.98 8.75473 73.98 7.72727ZM93.9421 0.454545V15H91.2859L84.9577 5.84517H84.8512V15H81.7759V0.454545H84.4748L90.7532 9.60227H90.881V0.454545H93.9421Z" fill="#959595" fill-opacity="0.4"/>
</g>
<defs>
<filter id="filter0_i_66_22" x="0.26416" y="0.255737" width="93.678" height="14.9502" filterUnits="userSpaceOnUse" color-interpolation-filters="sRGB">
<feFlood flood-opacity="0" result="BackgroundImageFix"/>
<feBlend mode="normal" in="SourceGraphic" in2="BackgroundImageFix" result="shape"/>
<feColorMatrix in="SourceAlpha" type="matrix" values="0 0 0 0 0 0 0 0 0 0 0 0 0 0 0 0 0 0 127 0" result="hardAlpha"/>
<feOffset/>
<feGaussianBlur stdDeviation="0.5"/>
<feComposite in2="hardAlpha" operator="arithmetic" k2="-1" k3="1"/>
<feColorMatrix type="matrix" values="0 0 0 0 1 0 0 0 0 1 0 0 0 0 1 0 0 0 1 0"/>
<feBlend mode="normal" in2="shape" result="effect1_innerShadow_66_22"/>
</filter>
</defs>
</svg>
